<?xml version="1.0" standalone="no"?>
<!DOCTYPE svg PUBLIC "-//W3C//DTD SVG 20010904//EN"
 "http://www.w3.org/TR/2001/REC-SVG-20010904/DTD/svg10.dtd">
<svg version="1.0" xmlns="http://www.w3.org/2000/svg"
 width="375.000000pt" height="667.000000pt" viewBox="0 0 375.000000 667.000000"
 preserveAspectRatio="xMidYMid meet">

<g transform="translate(0.000000,667.000000) scale(0.100000,-0.100000)"
fill="#000000" stroke="none">
<path d="M0 6105 l0 -565 24 0 c13 0 29 -7 36 -15 7 -8 16 -13 20 -10 4 2 18
-4 30 -15 13 -11 18 -20 12 -20 -18 0 -14 -30 5 -37 13 -5 12 -8 -8 -15 -22
-8 -22 -10 -6 -19 16 -10 16 -11 0 -27 -16 -16 -15 -17 1 -20 16 -4 16 -5 -3
-18 -19 -14 -24 -12 -58 11 -21 14 -41 25 -45 25 -5 0 -8 -119 -8 -264 0 -231
2 -265 16 -270 16 -6 47 6 74 30 10 9 20 10 30 4 12 -8 10 -10 -7 -10 -29 0
-29 -14 0 -28 17 -8 18 -11 5 -11 -19 -1 -26 -31 -8 -31 18 0 11 -20 -7 -20
-15 -1 -14 -4 6 -20 23 -20 23 -20 2 -20 -25 0 -28 -15 -5 -28 15 -8 15 -10
-1 -16 -17 -6 -17 -7 0 -26 16 -18 16 -20 2 -20 -22 0 -22 -16 0 -29 17 -10
17 -10 1 -11 -22 0 -24 -18 -3 -26 14 -6 13 -8 -2 -20 -16 -12 -16 -15 -3 -24
13 -9 13 -11 0 -20 -13 -9 -13 -12 3 -24 29 -23 19 -27 -43 -20 l-60 7 0
-1072 c0 -926 2 -1071 14 -1071 8 0 18 5 21 10 7 12 65 14 65 3 0 -5 -7 -17
-15 -27 -8 -11 -15 -34 -14 -50 0 -26 2 -28 8 -11 5 11 14 20 21 20 7 0 15 6
18 14 3 8 0 11 -7 7 -16 -10 -14 0 5 18 8 9 23 16 32 16 14 0 14 -1 0 -12 -14
-12 -13 -15 3 -30 11 -10 19 -14 19 -9 0 5 18 8 40 8 22 -1 40 -5 40 -8 0 -6
41 -2 70 7 12 4 12 6 1 14 -8 4 -20 6 -27 3 -7 -2 -21 0 -32 6 -13 7 -22 7
-30 -1 -9 -9 -12 -9 -12 1 0 8 -6 11 -17 7 -17 -7 -17 -6 -2 10 16 15 37 15
255 5 131 -7 240 -14 242 -16 2 -2 1 -9 -3 -15 -5 -7 -24 -10 -51 -7 -25 2
-47 0 -50 -4 -2 -4 -11 -6 -19 -2 -9 3 -15 -1 -15 -10 0 -17 27 -31 35 -17 6
10 66 2 80 -11 6 -6 2 -12 -13 -15 -22 -6 -32 -34 -12 -34 6 0 10 -9 10 -21 0
-11 -4 -17 -10 -14 -13 8 -13 -8 0 -21 17 -17 -19 -57 -46 -51 -14 2 -27 0
-30 -4 -3 -5 2 -9 10 -9 9 0 16 -4 16 -10 0 -13 -32 0 -51 22 -17 19 -35 13
-19 -7 8 -9 6 -14 -5 -19 -9 -3 -13 -2 -10 4 3 6 1 10 -4 10 -6 0 -11 -6 -11
-12 0 -9 -3 -8 -10 2 -7 12 -12 12 -29 -4 -26 -24 -26 -31 -1 -33 11 -1 20 4
20 10 0 7 4 6 10 -3 5 -8 10 -10 10 -5 0 6 20 10 43 10 45 0 82 -19 71 -37 -3
-5 -12 -1 -20 9 -8 11 -13 13 -14 6 0 -7 -12 -13 -27 -13 -16 -1 -41 -7 -58
-14 -25 -12 -27 -15 -12 -21 26 -11 21 -29 -13 -42 -17 -6 -28 -8 -25 -3 7 11
-21 21 -40 14 -20 -8 -35 4 -28 22 3 10 9 12 15 6 18 -18 48 -2 46 24 -3 27
-27 41 -40 22 -6 -10 -8 -8 -8 5 0 9 -4 17 -10 17 -5 0 -10 -5 -10 -10 0 -6
-12 -8 -26 -6 -29 5 -56 -14 -51 -36 2 -7 2 -10 0 -5 -3 4 -9 7 -14 7 -6 0 -7
-4 -4 -10 4 -6 -11 -10 -37 -11 -177 -4 -178 -4 -178 -55 0 -19 -4 -34 -10
-34 -5 0 -10 -7 -10 -15 0 -15 6 -17 75 -17 36 0 37 -1 7 -5 -17 -2 -32 -8
-32 -13 0 -5 -12 -10 -27 -12 -41 -4 -43 -36 -4 -51 39 -14 39 -27 1 -56 -22
-16 -29 -28 -25 -41 3 -10 1 -21 -5 -25 -5 -3 -10 -17 -10 -31 0 -17 8 -27 26
-34 14 -6 30 -8 34 -5 5 3 6 -11 3 -31 l-6 -36 39 6 c94 14 163 8 149 -14 -3
-4 2 -10 10 -13 14 -6 17 -67 3 -67 -4 0 -32 9 -63 21 -41 15 -56 26 -61 45
-3 13 -10 24 -15 24 -5 0 -6 -7 -3 -15 7 -18 -8 -19 -52 -3 -27 9 -37 9 -58
-6 l-26 -16 0 -740 0 -740 1875 0 1875 0 0 64 c0 42 -4 66 -12 69 -10 4 -10 6
0 6 9 1 12 145 12 686 0 652 -1 685 -18 676 -20 -11 -146 -10 -129 1 7 4 42
20 80 34 62 25 67 30 67 57 0 29 0 29 -26 12 -33 -21 -155 -67 -162 -61 -9 10
17 32 70 61 73 40 118 77 118 98 0 15 -12 11 -80 -24 -119 -62 -176 -63 -67 0
28 16 67 45 85 64 48 49 20 55 -75 16 -50 -21 -78 -28 -85 -21 -6 6 0 14 19
24 15 8 50 27 77 41 27 15 57 27 67 27 26 0 50 -11 44 -20 -3 -5 -1 -11 5 -15
7 -4 10 784 10 2434 l0 2441 -1875 0 -1875 0 0 -565z m3125 542 c33 -1 50 -6
49 -14 -1 -7 -2 -20 -2 -29 -1 -9 -8 -14 -14 -11 -15 5 -48 -44 -44 -67 1 -9
11 -22 21 -30 17 -12 17 -16 6 -30 -8 -9 -11 -19 -7 -23 3 -3 6 -1 6 5 0 7 4
12 9 12 5 0 8 -8 7 -17 -1 -12 5 -17 18 -15 11 2 17 -1 14 -10 -3 -7 -13 -13
-24 -13 -10 0 -19 -6 -18 -13 2 -29 5 -33 14 -27 6 3 10 -1 10 -9 0 -8 9 -20
20 -26 16 -9 20 -8 20 5 0 26 40 18 41 -7 l0 -23 10 23 c13 35 79 86 79 62 0
-6 -7 -13 -16 -17 -9 -3 -14 -15 -12 -32 2 -20 -2 -26 -17 -28 -11 -1 -29 -4
-40 -6 -11 -2 -23 1 -27 6 -4 7 -12 6 -22 -3 -9 -7 -26 -13 -38 -14 -21 -1
-39 -26 -19 -26 6 0 11 -9 11 -19 0 -12 9 -21 25 -25 16 -4 25 -13 25 -27 0
-19 25 -37 36 -26 3 3 1 21 -4 39 -8 29 -7 37 9 46 18 11 19 8 19 -54 0 -58 2
-65 15 -54 27 22 26 4 -1 -21 -21 -20 -27 -21 -34 -9 -7 12 -11 7 -16 -17 -4
-19 -13 -33 -21 -33 -8 0 -56 -22 -106 -49 l-92 -49 -37 19 c-21 11 -38 26
-38 33 0 23 -29 41 -48 29 -12 -7 -22 -7 -33 0 -13 8 -21 6 -34 -7 -10 -9 -14
-20 -10 -24 3 -4 13 2 21 12 20 28 41 7 24 -24 -6 -12 -9 -24 -6 -27 3 -3 8 2
12 11 3 9 11 16 17 16 16 0 97 -41 97 -49 0 -4 -57 -38 -127 -76 -148 -80
-243 -141 -243 -157 0 -17 -44 -53 -60 -50 -23 4 -63 68 -56 90 8 23 66 80 66
64 0 -6 10 -11 23 -9 17 2 22 -3 20 -20 -2 -13 1 -23 7 -23 17 0 20 18 6 45
-18 34 -12 50 32 95 19 19 55 61 80 93 25 31 51 57 58 57 8 0 13 3 13 8 -4 21
2 32 14 26 6 -4 9 -4 5 0 -4 5 10 37 29 73 38 69 66 158 66 208 0 17 -10 83
-22 147 -11 64 -21 120 -21 123 0 4 46 4 103 0 56 -3 125 -7 152 -8z m549
-139 c-6 -9 -3 -9 9 1 28 22 47 6 47 -39 0 -22 -2 -40 -5 -40 -3 0 -18 11 -32
24 -15 14 -31 22 -36 19 -6 -3 -8 -2 -5 3 3 5 8 17 11 27 4 9 9 17 12 17 4 0
3 -6 -1 -12z m-180 -24 c23 -9 20 -24 -4 -24 -11 0 -20 7 -20 15 0 17 2 18 24
9z m-15 -41 c7 -13 5 -21 -7 -30 -14 -10 -8 -11 36 -7 32 3 52 1 52 -6 0 -11
-10 -13 -61 -11 -26 1 -38 -3 -43 -15 -4 -11 -10 -13 -19 -6 -6 6 -26 8 -44 6
-18 -2 -35 1 -38 6 -3 5 0 7 8 4 8 -3 18 5 25 20 6 14 23 28 37 32 14 3 25 10
25 15 0 15 18 10 29 -8z m-259 -43 c0 -5 -7 -10 -15 -10 -8 0 -15 5 -15 10 0
6 7 10 15 10 8 0 15 -4 15 -10z m510 -70 l0 -61 -32 17 c-18 9 -35 18 -37 20
-3 3 61 83 67 84 1 0 2 -27 2 -60z m-220 22 c0 -4 -18 -26 -41 -47 -37 -36
-41 -38 -50 -22 -8 14 -14 15 -24 7 -11 -9 -12 -7 -8 10 7 27 23 36 34 19 7
-11 9 -11 9 -1 0 8 5 10 13 6 9 -6 9 -4 -1 8 -11 14 -10 17 5 21 30 8 63 7 63
-1z m-150 -151 c0 -12 -37 -29 -49 -22 -21 13 -2 38 25 33 13 -2 24 -7 24 -11z
m104 -148 c77 -41 78 -41 60 -68 -9 -13 -13 -29 -9 -36 5 -8 1 -9 -14 -4 -22
7 -30 -10 -8 -18 6 -3 2 -6 -10 -6 -16 -1 -23 5 -23 17 0 24 16 46 28 38 16
-10 23 10 8 23 -14 12 -49 4 -41 -9 2 -4 -29 -7 -69 -6 l-74 1 46 48 c26 26
48 47 50 47 3 0 27 -12 56 -27z m-30 -95 c-3 -5 2 -18 12 -30 18 -19 18 -20
-5 -39 -17 -14 -27 -16 -42 -9 -13 7 -19 7 -19 1 0 -6 -11 -13 -25 -17 -13 -3
-29 -12 -36 -20 -6 -8 -17 -14 -23 -14 -6 0 -3 5 6 11 13 7 17 20 15 44 -1 25
-5 31 -14 23 -7 -5 -18 -6 -25 -2 -10 6 -11 5 -1 -7 11 -14 4 -42 -11 -40 -20
3 -28 -1 -36 -21 -7 -19 -9 -19 -9 -5 -1 10 -5 16 -10 12 -6 -3 -6 -17 -1 -35
8 -27 7 -29 -10 -20 -10 6 -22 14 -25 20 -11 18 23 76 65 113 34 28 47 34 61
27 10 -6 27 -10 38 -10 10 0 22 -6 25 -12 3 -7 2 0 -1 17 l-6 29 26 -17 c31
-20 44 -22 28 -4 -6 8 -8 16 -5 20 9 9 35 -4 28 -15z m166 10 c0 -6 3 -9 6 -5
13 12 65 -23 60 -41 -2 -9 -7 -30 -10 -45 -4 -16 -11 -25 -17 -21 -8 4 -7 9 2
15 16 10 6 22 -21 26 -11 2 -19 -2 -17 -9 1 -7 -2 -12 -8 -13 -5 0 -16 -4 -23
-9 -7 -4 -16 -6 -19 -3 -3 3 -15 -3 -26 -14 -13 -12 -28 -17 -40 -13 -11 4
-17 2 -14 -3 4 -6 -4 -8 -19 -5 -29 5 -20 20 16 27 26 5 70 42 70 59 0 6 9 17
20 24 11 7 20 19 20 27 0 8 5 15 10 15 6 0 10 -5 10 -12z m-290 -158 c0 -5 -2
-10 -4 -10 -3 0 -8 5 -11 10 -3 6 -1 10 4 10 6 0 11 -4 11 -10z m-25 -70 c4
-6 -2 -7 -16 -1 -13 4 -25 14 -27 20 -3 10 0 10 16 2 12 -6 24 -16 27 -21z
m34 8 c-9 -16 -14 -19 -17 -9 -2 7 2 17 9 22 20 13 21 11 8 -13z m-194 -55
c-8 -8 -15 -20 -15 -26 0 -7 4 -6 11 3 8 12 9 11 7 -6 -2 -13 11 -37 35 -63
20 -22 37 -45 37 -50 0 -13 -28 -33 -38 -27 -5 3 -8 -74 -6 -182 l3 -187 -37
-2 c-20 -1 -46 -2 -57 -3 -11 -1 -36 3 -55 7 -28 7 -35 14 -35 33 0 18 6 26
22 28 12 2 27 9 33 17 9 11 5 15 -24 20 -19 4 -40 13 -47 21 -6 8 -18 14 -25
14 -15 0 -19 26 -5 34 7 5 80 -11 144 -30 17 -5 17 -4 1 33 -9 21 -17 49 -19
63 -4 52 -6 55 -16 31 -5 -14 -7 -31 -5 -38 12 -31 -92 -46 -130 -19 -18 14
-18 15 9 21 36 9 34 22 -4 30 -17 4 -33 14 -36 22 -3 8 -15 18 -26 22 -20 7
-20 8 2 28 l22 21 -68 -5 c-37 -3 -72 -9 -77 -14 -14 -12 3 -27 38 -33 39 -7
41 -11 11 -30 -25 -17 -27 -17 -46 5 -50 57 -2 94 164 125 68 13 106 26 124
41 14 13 30 23 35 23 5 0 1 11 -7 24 -16 24 -15 26 21 66 l38 42 18 -22 c16
-19 16 -24 3 -37z m-335 -18 c-7 -8 -17 -12 -22 -9 -6 4 -5 10 3 15 22 14 33
10 19 -6z m385 5 c3 -5 2 -10 -4 -10 -5 0 -13 5 -16 10 -3 6 -2 10 4 10 5 0
13 -4 16 -10z m-145 -40 c0 -5 -4 -10 -10 -10 -5 0 -10 5 -10 10 0 6 5 10 10
10 6 0 10 -4 10 -10z m558 -150 c31 0 91 -23 85 -33 -4 -6 0 -8 11 -4 10 4 26
3 35 -3 23 -12 25 -60 2 -67 -42 -13 -120 -51 -155 -75 -37 -26 -40 -27 -58
-12 -13 13 -15 20 -7 30 13 16 -11 30 -36 20 -25 -9 -17 3 13 18 15 8 48 17
72 21 25 4 50 10 55 15 6 4 19 10 30 13 16 5 15 6 -5 5 -57 -1 -124 5 -105 9
50 11 85 25 85 35 0 6 -12 8 -30 5 -45 -9 -52 -12 -85 -30 -25 -13 -27 -16
-10 -17 23 -2 -19 -16 -69 -24 -15 -3 -39 -15 -52 -27 -27 -25 -81 -39 -68
-18 5 9 2 10 -9 6 -11 -4 -14 -2 -10 9 3 7 12 14 21 14 11 0 9 5 -8 20 l-23
20 21 0 c12 0 22 5 22 10 0 6 -4 10 -10 10 -5 0 -10 5 -10 11 0 6 6 9 13 6 6
-2 23 0 36 5 17 6 27 5 32 -3 5 -9 13 -7 30 5 13 9 45 19 72 22 l49 7 -31 19
c-46 30 -38 31 25 3 31 -14 63 -25 72 -25z m-173 0 c3 -5 1 -10 -4 -10 -6 0
-11 5 -11 10 0 6 2 10 4 10 3 0 8 -4 11 -10z m-745 -54 c0 -22 -16 -28 -29
-12 -9 11 -9 15 1 19 22 9 28 8 28 -7z m660 -105 c0 -5 -7 -12 -16 -15 -14 -5
-15 -4 -4 9 14 17 20 19 20 6z m81 -22 c-9 -22 -10 -22 -10 -3 -1 11 2 24 6
27 12 12 14 0 4 -24z m329 -24 c0 -40 -4 -57 -15 -61 -8 -4 -15 -12 -15 -19 0
-10 -40 -45 -52 -45 -3 0 -2 45 1 113 1 22 45 67 66 67 12 0 15 -12 15 -55z
m-104 -11 c-2 -19 -8 -40 -15 -47 -6 -6 -11 -17 -11 -23 0 -7 -6 -19 -13 -26
-7 -7 -23 -26 -35 -43 -22 -28 -23 -28 -19 -5 8 40 80 180 93 180 2 0 2 -16 0
-36z m-129 0 c1 -5 -8 -14 -20 -20 -22 -10 -23 -9 -13 13 11 22 27 26 33 7z
m-954 -1581 c-20 -8 -15 -26 5 -18 14 5 15 4 5 -6 -10 -10 -16 -10 -24 -2 -13
13 -4 33 14 32 9 0 9 -2 0 -6z m25 -57 c-10 -7 -18 -17 -18 -21 0 -4 8 -4 18
0 13 5 14 3 5 -6 -14 -14 -36 -2 -29 16 3 8 -3 16 -12 18 -9 3 -1 5 18 6 31 0
33 -1 18 -13z m62 -41 c10 -12 10 -18 0 -30 -25 -30 -61 -7 -46 30 3 8 12 15
19 15 8 0 20 -7 27 -15z m44 -58 c8 -12 7 -21 -5 -33 -15 -14 -18 -14 -33 1
-12 13 -14 21 -5 36 12 23 27 21 43 -4z m-2544 -57 c0 -13 -20 -13 -40 0 -12
8 -9 10 13 10 15 0 27 -4 27 -10z m2618 -24 c-2 -1 -13 -9 -25 -19 -21 -18
-22 -18 -34 5 -12 22 -11 22 6 8 17 -14 18 -13 12 3 -11 29 3 40 24 21 11 -9
18 -18 17 -18z m30 -42 c2 -13 -4 -24 -14 -28 -23 -9 -37 7 -29 34 8 27 39 23
43 -6z m-2021 -916 c-3 -8 -6 -5 -6 6 -1 11 2 17 5 13 3 -3 4 -12 1 -19z m27
-276 c20 -77 21 -93 10 -113 -18 -32 -17 -40 2 -37 17 3 25 -16 25 -64 0 -17
7 -28 17 -31 12 -3 7 -8 -18 -20 -34 -15 -35 -15 -43 8 -4 12 -17 25 -27 28
-18 5 -19 12 -14 104 7 143 15 225 21 220 2 -3 15 -46 27 -95z m704 -60 c2
-105 6 -151 13 -146 6 3 -27 -51 -74 -121 l-85 -126 -60 -3 c-55 -2 -60 -1
-51 15 5 10 9 29 9 43 0 19 5 25 23 24 12 -1 40 -1 62 1 32 2 36 4 20 11 -18
8 -17 9 8 9 15 1 27 6 27 13 0 6 -3 9 -6 6 -3 -4 -19 -2 -35 2 -24 7 -32 5
-42 -11 -6 -10 -19 -19 -28 -19 -18 0 -33 37 -18 46 5 3 9 0 9 -7 0 -9 3 -9
14 0 8 7 39 12 70 12 50 1 55 3 39 14 -10 7 -22 10 -28 7 -9 -7 -28 -8 -62 -3
-22 2 -14 19 15 30 l27 11 -27 -5 c-14 -3 -34 -8 -45 -12 -10 -3 -15 -3 -11 2
4 4 3 14 -3 22 -6 7 -8 13 -5 13 4 0 2 9 -4 20 -11 20 -11 20 27 4 21 -8 44
-18 51 -21 6 -3 12 0 12 6 0 6 -8 11 -17 11 -10 0 -35 11 -57 23 l-38 24 46
27 c25 15 46 31 46 37 0 6 -7 3 -16 -5 -8 -9 -20 -13 -26 -10 -6 4 -14 0 -19
-7 -6 -10 -9 -4 -9 18 0 22 -6 33 -19 38 -11 3 -22 13 -25 21 -3 8 -10 12 -16
9 -5 -3 -10 -1 -10 4 0 6 15 11 33 12 17 0 26 3 20 6 -17 6 -17 24 -1 21 7 -2
14 8 15 22 2 17 0 20 -5 10 -7 -15 -14 -16 -57 -10 -15 2 -12 4 10 9 30 7 30
7 -12 15 -24 4 -43 11 -43 15 0 21 56 29 200 27 l155 -1 3 -153z m1477 114
c-22 -33 -83 -73 -120 -79 -16 -2 -24 -2 -17 0 6 3 12 8 12 13 0 5 21 24 47
42 76 53 102 61 78 24z m-2622 -306 c-6 -21 -18 -26 -28 -11 -4 7 17 28 32 31
0 0 -1 -9 -4 -20z m193 5 c-20 -15 -36 -19 -36 -10 0 5 38 23 50 24 3 0 -4 -6
-14 -14z m-239 -11 c-3 -3 -12 -4 -19 -1 -8 3 -5 6 6 6 11 1 17 -2 13 -5z
m571 -26 c-5 -13 -37 -20 -52 -11 -5 4 -1 10 10 14 29 11 46 10 42 -3z m-448
-28 c0 -5 -5 -10 -11 -10 -5 0 -7 5 -4 10 3 6 8 10 11 10 2 0 4 -4 4 -10z
m100 -1 c12 -9 12 -10 -4 -5 -11 4 -22 2 -25 -3 -4 -5 -18 -4 -36 4 l-30 13
40 1 c22 0 47 -4 55 -10z m364 -18 c3 -4 -5 -7 -19 -6 -13 2 -30 -4 -37 -12
-11 -14 -8 -15 25 -11 41 4 50 -8 15 -21 -28 -10 -58 -3 -58 14 0 8 -3 20 -6
29 -5 13 2 16 34 16 23 0 43 -4 46 -9z m-294 -35 c0 -2 -7 -6 -15 -10 -8 -3
-15 -1 -15 4 0 6 7 10 15 10 8 0 15 -2 15 -4z m-320 -16 c-20 -13 -93 -13 -85
0 3 6 27 10 53 10 34 0 43 -3 32 -10z m646 -17 c4 -10 6 -21 6 -25 -1 -5 3 -8
8 -8 6 0 10 -4 10 -9 0 -5 -18 -12 -40 -16 -31 -5 -40 -11 -40 -26 0 -11 5
-17 10 -14 6 4 8 10 5 14 -2 5 7 6 22 3 20 -4 24 -2 18 9 -7 11 -6 12 6 2 11
-9 19 -9 26 -2 12 12 33 4 33 -10 0 -12 -39 -21 -45 -11 -8 13 -54 -1 -49 -15
4 -9 29 -12 97 -9 51 2 102 7 115 9 15 4 22 1 22 -10 0 -12 13 -15 58 -15 40
0 53 3 42 10 -13 8 -12 10 5 11 11 1 23 1 28 0 4 0 7 6 7 15 0 12 -4 14 -12 7
-17 -12 -38 -11 -38 2 -1 6 15 13 35 16 32 5 35 4 35 -18 0 -13 4 -22 9 -19 5
3 7 15 4 26 -4 15 0 20 16 20 11 0 21 -3 21 -6 0 -17 -184 -272 -193 -267 -6
3 -7 1 -3 -5 4 -6 -9 -35 -29 -64 -19 -29 -35 -60 -35 -70 0 -9 28 -42 63 -73
l62 -58 -100 7 c-55 3 -161 6 -235 6 l-135 1 -38 49 c-21 28 -45 50 -53 50 -8
0 -14 5 -14 10 0 6 -9 10 -21 10 -11 0 -18 4 -15 9 3 5 0 14 -7 20 -8 6 -14
27 -15 47 -2 40 -12 62 -12 26 0 -14 -6 -22 -16 -22 -11 0 -14 5 -10 16 5 14
4 15 -9 4 -9 -7 -18 -10 -21 -7 -3 3 3 11 14 18 19 12 19 13 1 43 -10 17 -19
36 -19 42 0 6 31 10 83 11 78 1 123 -9 113 -25 -7 -12 23 -211 35 -234 22 -40
31 2 45 213 9 118 18 238 21 267 l5 54 32 -5 c17 -3 40 -2 51 3 29 12 32 12
41 -7z m-330 -34 c8 -13 -40 -29 -65 -22 -17 4 -19 8 -10 19 6 8 15 11 20 8 5
-3 9 -1 9 4 0 12 38 4 46 -9z m-327 -16 c-12 -15 -12 -16 4 -10 9 3 17 3 17
-2 0 -4 -43 -8 -95 -7 -52 1 -95 4 -95 9 0 4 31 7 69 7 39 0 73 5 76 10 3 6
13 10 22 10 13 0 14 -2 2 -17z m399 -61 c-2 -9 -7 -20 -12 -23 -4 -4 2 -17 15
-30 14 -14 18 -24 11 -27 -7 -2 -12 -15 -12 -28 0 -14 4 -22 10 -19 6 3 10 1
10 -4 0 -14 -33 -14 -47 0 -6 6 -33 9 -60 8 -41 -3 -49 -1 -50 14 -2 15 4 17
33 11 19 -3 34 -2 34 3 0 6 12 15 26 21 14 7 22 17 19 22 -11 17 -37 11 -42
-10 -7 -25 -32 -27 -29 -2 1 9 12 21 24 27 25 11 29 25 7 25 -8 0 -15 6 -15
14 0 9 9 13 25 11 14 -1 28 2 31 7 8 13 25 -2 22 -20z m-125 -3 c-4 -12 0 -25
8 -31 10 -7 7 -8 -11 -3 -14 4 -34 8 -45 8 -11 1 -24 5 -30 8 -5 4 -18 5 -27
4 -10 -2 -18 1 -18 6 0 6 23 8 54 5 42 -4 55 -2 60 9 8 23 15 18 9 -6z m-273
-63 c0 -9 -39 -13 -51 -5 -10 6 -4 9 19 9 17 0 32 -2 32 -4z m245 -26 c3 -6
-1 -7 -9 -4 -18 7 -21 14 -7 14 6 0 13 -4 16 -10z m-200 -30 c3 -5 1 -10 -4
-10 -6 0 -11 5 -11 10 0 6 2 10 4 10 3 0 8 -4 11 -10z m40 -10 c3 -5 1 -10 -4
-10 -6 0 -11 5 -11 10 0 6 2 10 4 10 3 0 8 -4 11 -10z m15 -32 c0 -9 3 -9 12
0 14 14 38 16 38 4 0 -16 -69 -17 -83 -3 -8 8 -4 11 11 11 12 0 22 -5 22 -12z
m-260 -8 c0 -5 -2 -10 -4 -10 -3 0 -8 5 -11 10 -3 6 -1 10 4 10 6 0 11 -4 11
-10z m229 -101 c-14 -27 -19 -24 -19 12 0 27 2 30 15 19 11 -9 12 -17 4 -31z
m3214 20 c-11 -12 -27 -19 -34 -17 -9 3 -3 11 16 21 40 22 43 21 18 -4z
m-3172 -50 c11 -6 33 -11 49 -11 18 -1 27 -5 23 -14 -4 -12 -14 -12 -43 -1 -8
3 -27 8 -42 11 -16 4 -28 11 -28 16 0 13 16 13 41 -1z m122 -16 c-7 -2 -19 -2
-25 0 -7 3 -2 5 12 5 14 0 19 -2 13 -5z m34 -38 c8 -8 19 -13 24 -10 5 4 9 -1
9 -9 0 -21 -9 -20 -60 3 -39 17 -41 20 -19 24 13 2 25 5 27 6 2 0 10 -6 19
-14z m-435 -89 c-3 -11 -7 -15 -10 -8 -2 7 -8 10 -13 7 -5 -4 -6 0 -3 8 8 23
32 16 26 -7z m34 -1 c-3 -23 -12 -26 -13 -5 -1 11 2 20 7 20 4 0 7 -7 6 -15z
m47 -12 c-7 -2 -13 -9 -13 -14 0 -6 5 -7 12 -3 7 4 8 3 4 -5 -9 -14 -26 -5
-26 15 0 8 8 14 18 13 10 0 12 -3 5 -6z m46 -31 c0 -14 -2 -13 -9 3 -8 19 -9
19 -9 1 -1 -11 -4 -17 -7 -13 -4 3 -4 13 0 22 7 20 26 10 25 -13z m54 -16 c3
-6 -6 -11 -18 -11 -12 0 -21 5 -18 11 2 6 10 11 18 11 8 0 16 -5 18 -11z m7
-548 c0 -18 -2 -20 -9 -9 -9 15 -12 8 -25 -60 -4 -22 25 -14 54 14 22 19 22
21 4 34 -10 7 -12 13 -5 13 7 0 9 5 6 10 -8 13 6 12 90 -6 39 -8 90 -19 115
-24 25 -4 146 -29 269 -54 123 -25 226 -46 228 -46 1 0 3 -4 3 -9 0 -5 -60 4
-132 19 -172 36 -198 40 -198 29 0 -5 5 -9 10 -9 17 0 11 -18 -7 -22 -10 -3 1
-8 25 -12 44 -8 54 -22 25 -33 -10 -4 -23 -14 -30 -22 -10 -14 -14 -13 -35 7
-32 29 -58 30 -50 0 4 -17 2 -20 -12 -15 -10 4 -22 7 -27 7 -10 0 -34 37 -44
68 -5 17 -2 22 12 22 11 0 25 -6 32 -12 8 -8 7 -3 -2 12 -19 30 -73 64 -81 51
-3 -5 1 -11 9 -15 8 -3 15 -10 15 -15 0 -5 -18 -2 -40 6 -22 9 -40 20 -40 25
0 4 -4 8 -10 8 -19 0 -10 -24 21 -56 18 -18 28 -37 24 -44 -4 -7 -19 2 -41 27
-24 28 -33 33 -34 21 0 -19 -25 -25 -35 -8 -3 6 -14 10 -23 9 -11 0 -12 -3 -4
-6 6 -2 12 -14 12 -26 0 -12 4 -29 10 -37 6 -9 5 -17 -3 -22 -8 -5 -5 -8 8 -8
17 0 17 -2 5 -10 -15 -9 -13 -11 13 -14 6 0 12 -6 12 -13 0 -6 3 -15 8 -19 13
-14 7 -24 -15 -25 -13 0 -17 -3 -10 -6 18 -7 15 -33 -5 -33 -11 0 -14 -3 -7
-8 6 -4 13 -14 16 -23 5 -12 1 -15 -16 -12 -15 3 -25 -1 -29 -11 -4 -9 -2 -16
2 -16 5 0 11 5 13 12 5 15 28 1 28 -18 0 -10 -7 -13 -27 -9 -23 5 -25 4 -10
-5 25 -16 21 -30 -10 -31 -24 0 -20 -3 19 -17 70 -25 80 -42 13 -24 -17 5 -41
5 -55 1 -16 -4 -19 -7 -7 -8 10 -1 17 -9 17 -20 0 -15 -5 -18 -22 -14 -20 4
-19 3 4 -10 14 -8 44 -18 67 -22 29 -5 38 -10 34 -21 -3 -9 -13 -13 -27 -9
-20 5 -20 4 2 -6 26 -14 28 -27 6 -36 -13 -5 -13 -7 -2 -14 7 -5 -32 -9 -95
-9 -61 0 -106 4 -103 9 6 10 -16 21 -42 21 -13 0 -14 -2 -4 -9 11 -6 10 -10
-3 -15 -14 -5 -16 -2 -11 16 3 13 6 29 6 36 0 6 5 12 11 12 5 0 7 -5 4 -10
-10 -16 23 -24 40 -10 8 7 15 19 15 27 0 12 -8 14 -36 8 -31 -5 -35 -4 -31 12
3 10 20 95 38 188 44 234 47 245 65 245 8 0 13 -4 9 -9 -10 -16 13 -22 35 -9
35 22 25 41 -19 33 l-39 -6 8 43 c5 24 9 44 9 46 1 1 1 9 1 17 0 8 9 15 20 15
14 0 20 -7 20 -22z m540 -218 c0 -5 -4 -10 -10 -10 -5 0 -10 5 -10 10 0 6 5
10 10 10 6 0 10 -4 10 -10z m68 -45 c45 -11 54 -11 59 1 3 8 12 14 20 14 13 0
13 -3 3 -15 -10 -11 -10 -15 0 -15 6 0 10 -6 7 -12 -2 -7 -10 -12 -16 -10 -15
3 -14 -15 1 -20 7 -3 8 -9 3 -19 -5 -8 -8 -22 -7 -31 2 -10 -1 -18 -6 -18 -6
0 -8 -9 -5 -20 4 -15 0 -20 -13 -20 -14 0 -16 -2 -6 -9 9 -5 11 -19 7 -43 -7
-34 -8 -35 -40 -28 -18 4 -38 10 -44 14 -17 11 -13 26 7 27 12 0 11 3 -7 10
-17 7 -22 15 -18 29 3 11 1 20 -4 20 -5 0 -9 11 -9 25 0 14 -11 48 -25 75 -14
27 -25 54 -25 59 0 11 31 7 118 -14z m2825 -195 c22 -26 21 -37 -2 -50 -28
-14 -41 -13 -41 5 0 21 -27 30 -45 15 -8 -7 -15 -8 -15 -3 0 8 64 49 80 52 3
1 13 -8 23 -19z m-2796 -75 c9 -25 -2 -27 -28 -6 l-24 20 23 1 c12 0 25 -7 29
-15z m-882 -103 c-3 -3 -11 0 -18 7 -9 10 -8 11 6 5 10 -3 15 -9 12 -12z"/>
<path d="M3060 6630 c0 -5 5 -10 10 -10 6 0 10 5 10 10 0 6 -4 10 -10 10 -5 0
-10 -4 -10 -10z"/>
<path d="M2922 6429 c2 -6 8 -10 13 -10 5 0 11 4 13 10 2 6 -4 11 -13 11 -9 0
-15 -5 -13 -11z"/>
<path d="M3080 6410 c0 -5 5 -10 10 -10 6 0 10 5 10 10 0 6 -4 10 -10 10 -5 0
-10 -4 -10 -10z"/>
<path d="M2940 6360 c0 -5 7 -7 15 -4 8 4 15 8 15 10 0 2 -7 4 -15 4 -8 0 -15
-4 -15 -10z"/>
<path d="M3060 6328 c0 -9 -6 -19 -12 -21 -8 -3 -7 -6 4 -6 22 -1 29 11 17 29
-7 13 -9 12 -9 -2z"/>
<path d="M3112 6313 c5 -25 28 -28 28 -4 0 12 -6 21 -16 21 -9 0 -14 -7 -12
-17z"/>
<path d="M3096 6274 c-8 -21 1 -34 22 -33 10 0 12 3 5 5 -7 3 -10 11 -7 19 3
7 1 16 -4 19 -6 3 -13 -1 -16 -10z"/>
<path d="M2996 6261 c-4 -5 -2 -12 3 -15 5 -4 12 -2 15 3 4 5 2 12 -3 15 -5 4
-12 2 -15 -3z"/>
<path d="M2950 6205 c0 -16 16 -20 24 -6 3 5 -1 11 -9 15 -9 3 -15 0 -15 -9z"/>
<path d="M3147 6213 c-4 -3 -7 -18 -6 -32 0 -26 0 -26 11 -3 6 12 15 22 20 22
5 0 6 5 3 10 -7 12 -19 13 -28 3z"/>
<path d="M2996 6185 c4 -8 12 -15 20 -15 17 0 19 -17 2 -22 -9 -3 -9 -6 -1
-11 12 -7 43 17 43 34 0 9 -41 29 -60 29 -5 0 -7 -7 -4 -15z"/>
<path d="M3126 6141 c-3 -4 1 -16 8 -26 10 -14 14 -15 18 -4 6 16 -18 44 -26
30z"/>
<path d="M2846 6085 c-3 -8 -1 -15 4 -15 13 0 22 18 11 24 -5 3 -11 -1 -15 -9z"/>
<path d="M2780 6050 c-9 -6 -10 -10 -3 -10 6 0 15 5 18 10 8 12 4 12 -15 0z"/>
<path d="M2714 5875 c-1 -14 2 -25 6 -25 16 0 19 17 7 34 -11 14 -12 13 -13
-9z"/>
<path d="M3415 5921 c-3 -5 -1 -12 5 -16 5 -3 10 1 10 9 0 18 -6 21 -15 7z"/>
<path d="M3080 5690 c0 -5 5 -10 11 -10 5 0 7 5 4 10 -3 6 -8 10 -11 10 -2 0
-4 -4 -4 -10z"/>
<path d="M3435 5434 c-19 -15 -22 -21 -9 -15 18 9 52 41 43 41 -2 0 -17 -12
-34 -26z"/>
<path d="M3326 5417 c3 -10 9 -15 12 -12 3 3 0 11 -7 18 -10 9 -11 8 -5 -6z"/>
<path d="M2603 3585 c-3 -9 -3 -19 1 -22 8 -9 37 18 30 28 -8 14 -24 11 -31
-6z"/>
<path d="M2650 3524 c0 -9 5 -14 12 -12 18 6 21 28 4 28 -9 0 -16 -7 -16 -16z"/>
<path d="M2725 3460 c3 -5 8 -10 11 -10 2 0 4 5 4 10 0 6 -5 10 -11 10 -5 0
-7 -4 -4 -10z"/>
<path d="M2756 3414 c-9 -24 -7 -27 9 -10 17 17 19 26 6 26 -5 0 -12 -7 -15
-16z"/>
<path d="M1261 2247 c2 -1 13 -9 24 -17 19 -14 19 -14 6 3 -7 9 -18 17 -24 17
-6 0 -8 -1 -6 -3z"/>
<path d="M1380 2224 c0 -8 5 -12 10 -9 6 3 10 10 10 16 0 5 -4 9 -10 9 -5 0
-10 -7 -10 -16z"/>
<path d="M1424 2219 c-3 -6 -2 -15 3 -20 5 -5 9 -1 9 11 0 23 -2 24 -12 9z"/>
<path d="M1306 2197 c3 -10 9 -15 12 -12 3 3 0 11 -7 18 -10 9 -11 8 -5 -6z"/>
<path d="M1370 2188 c0 -4 4 -8 9 -8 6 0 12 4 15 8 3 5 -1 9 -9 9 -8 0 -15 -4
-15 -9z"/>
<path d="M1290 1810 c0 -5 5 -10 11 -10 5 0 7 5 4 10 -3 6 -8 10 -11 10 -2 0
-4 -4 -4 -10z"/>
<path d="M890 1660 c0 -5 7 -10 15 -10 8 0 15 5 15 10 0 6 -7 10 -15 10 -8 0
-15 -4 -15 -10z"/>
<path d="M1120 1640 c0 -5 5 -10 10 -10 6 0 10 5 10 10 0 6 -4 10 -10 10 -5 0
-10 -4 -10 -10z"/>
<path d="M881 1624 c0 -11 3 -14 6 -6 3 7 2 16 -1 19 -3 4 -6 -2 -5 -13z"/>
<path d="M988 1506 c2 -19 11 -37 19 -40 11 -5 13 -2 8 11 -4 10 -10 28 -12
41 -8 35 -19 26 -15 -12z"/>
<path d="M960 1520 c0 -5 5 -10 11 -10 5 0 7 5 4 10 -3 6 -8 10 -11 10 -2 0
-4 -4 -4 -10z"/>
<path d="M890 1479 c0 -5 5 -7 10 -4 6 3 10 8 10 11 0 2 -4 4 -10 4 -5 0 -10
-5 -10 -11z"/>
<path d="M965 1469 c-4 -6 -5 -12 -2 -15 2 -3 7 2 10 11 7 17 1 20 -8 4z"/>
<path d="M239 508 c0 -2 -2 -13 -3 -26 -2 -20 0 -23 23 -17 46 12 50 45 5 45
-13 0 -24 -1 -25 -2z"/>
<path d="M220 415 c0 -27 26 -35 48 -13 21 21 13 38 -18 38 -25 0 -30 -4 -30
-25z"/>
<path d="M224 371 c4 -6 1 -11 -7 -11 -10 0 -13 -7 -10 -20 7 -26 25 -25 48 0
20 23 20 25 -14 35 -16 5 -21 4 -17 -4z"/>
<path d="M355 370 c-3 -5 -1 -10 4 -10 6 0 11 5 11 10 0 6 -2 10 -4 10 -3 0
-8 -4 -11 -10z"/>
<path d="M194 283 c2 -16 -2 -31 -8 -35 -7 -5 -5 -8 5 -8 18 0 59 40 59 58 0
7 -13 12 -29 12 -26 0 -29 -3 -27 -27z"/>
<path d="M198 233 c-10 -2 -18 -13 -18 -24 0 -25 36 -25 50 0 17 32 12 36 -32
24z"/>
<path d="M164 153 c4 -35 29 -41 50 -12 18 26 8 39 -31 39 -18 0 -21 -5 -19
-27z"/>
<path d="M285 100 c11 -5 27 -9 35 -9 9 0 8 4 -5 9 -11 5 -27 9 -35 9 -9 0 -8
-4 5 -9z"/>
<path d="M918 183 c7 -3 16 -2 19 1 4 3 -2 6 -13 5 -11 0 -14 -3 -6 -6z"/>
<path d="M6 4785 c-3 -8 -1 -15 4 -15 6 0 10 7 10 15 0 8 -2 15 -4 15 -2 0 -6
-7 -10 -15z"/>
<path d="M6 4743 c-6 -14 -5 -15 5 -6 7 7 10 15 7 18 -3 3 -9 -2 -12 -12z"/>
<path d="M6 4582 c-2 -4 -1 -14 5 -22 7 -12 9 -10 9 8 0 23 -5 28 -14 14z"/>
<path d="M365 2309 c-14 -5 -15 -8 -5 -9 20 -2 48 -7 77 -15 14 -3 23 -1 23 6
0 8 4 8 15 -1 17 -14 37 -10 27 6 -9 14 -110 24 -137 13z"/>
<path d="M163 2247 c-11 -24 -10 -27 5 -27 10 0 24 -6 31 -12 11 -11 12 -10 6
2 -8 13 -6 13 7 2 9 -7 19 -9 22 -4 3 5 22 7 43 5 35 -2 52 8 53 31 0 6 -7 1
-15 -10 -8 -10 -15 -14 -15 -8 0 7 -6 12 -12 11 -70 -2 -107 4 -110 20 -2 13
-6 10 -15 -10z"/>
<path d="M580 2229 c0 -5 5 -7 10 -4 6 3 10 8 10 11 0 2 -4 4 -10 4 -5 0 -10
-5 -10 -11z"/>
<path d="M336 2154 c-16 -35 -16 -36 1 -29 10 4 46 9 81 12 34 3 62 10 62 15
0 4 -11 6 -25 2 -14 -3 -25 -2 -25 4 0 5 -16 8 -36 6 -27 -2 -34 1 -30 12 12
30 -11 12 -28 -22z"/>
<path d="M537 2163 c-20 -19 -4 -30 43 -29 27 1 50 4 50 9 0 7 -22 11 -52 8
-10 -1 -18 3 -18 8 0 12 -13 15 -23 4z"/>
<path d="M150 2145 c0 -8 5 -15 10 -15 6 0 10 7 10 15 0 8 -4 15 -10 15 -5 0
-10 -7 -10 -15z"/>
<path d="M185 2150 c-4 -6 5 -10 19 -10 14 0 26 5 26 10 0 6 -9 10 -19 10 -11
0 -23 -4 -26 -10z"/>
<path d="M485 2110 c-3 -5 -1 -10 4 -10 6 0 11 5 11 10 0 6 -2 10 -4 10 -3 0
-8 -4 -11 -10z"/>
<path d="M342 2085 c-7 -14 -12 -27 -12 -28 0 -1 22 -2 50 -2 43 0 50 3 55 24
7 27 -2 41 -11 17 -8 -20 -43 -21 -50 -1 -9 22 -19 18 -32 -10z"/>
<path d="M190 2084 c0 -10 10 -14 29 -12 17 1 27 7 24 14 -6 16 -53 15 -53 -2z"/>
<path d="M130 2080 c0 -5 9 -10 20 -10 11 0 20 5 20 10 0 6 -9 10 -20 10 -11
0 -20 -4 -20 -10z"/>
<path d="M68 2023 c6 -2 18 -2 25 0 6 3 1 5 -13 5 -14 0 -19 -2 -12 -5z"/>
<path d="M120 2012 c0 -14 7 -17 43 -14 57 4 87 11 87 20 0 10 -62 9 -77 -1
-8 -5 -13 -4 -13 2 0 6 -9 11 -20 11 -12 0 -20 -7 -20 -18z"/>
</g>
</svg>
